<svg width="27" height="26" viewBox="0 0 27 26" fill="none" xmlns="http://www.w3.org/2000/svg">
<path d="M19.0783 2.18488H8.3869C5.43455 2.18488 3.0412 4.57823 3.0412 7.53057V18.222C3.0412 21.1743 5.43455 23.5677 8.3869 23.5677H19.0783C22.0306 23.5677 24.424 21.1743 24.424 18.222V7.53057C24.424 4.57823 22.0306 2.18488 19.0783 2.18488Z" stroke="#2F84E5" stroke-width="1.50937" stroke-linecap="round" stroke-linejoin="round"/>
<path d="M18.0092 12.2027C18.1411 13.0925 17.9891 14.0013 17.5749 14.7997C17.1606 15.5981 16.5051 16.2456 15.7016 16.65C14.8981 17.0544 13.9876 17.1952 13.0995 17.0523C12.2114 16.9094 11.391 16.4901 10.7549 15.854C10.1188 15.218 9.69954 14.3975 9.55664 13.5094C9.41373 12.6214 9.5545 11.7108 9.95891 10.9073C10.3633 10.1039 11.0108 9.44835 11.8092 9.03406C12.6077 8.61977 13.5164 8.46778 14.4062 8.59973C15.3138 8.73432 16.1541 9.15725 16.8029 9.80605C17.4517 10.4548 17.8746 11.2951 18.0092 12.2027Z" stroke="#2F84E5" stroke-width="1.50937" stroke-linecap="round" stroke-linejoin="round"/>
<path d="M19.6132 6.99597H19.6239" stroke="#2F84E5" stroke-width="1.50937" stroke-linecap="round" stroke-linejoin="round"/>
</svg>
