<svg width="26" height="26" viewBox="0 0 26 26" fill="none" xmlns="http://www.w3.org/2000/svg">
<path d="M17.1369 8.59973C18.8382 8.59973 20.4698 9.27558 21.6729 10.4786C22.8759 11.6816 23.5517 13.3132 23.5517 15.0146V22.4985H19.2752V15.0146C19.2752 14.4475 19.0499 13.9036 18.6489 13.5026C18.2479 13.1016 17.704 12.8763 17.1369 12.8763C16.5698 12.8763 16.0259 13.1016 15.6249 13.5026C15.2239 13.9036 14.9986 14.4475 14.9986 15.0146V22.4985H10.722V15.0146C10.722 13.3132 11.3979 11.6816 12.6009 10.4786C13.8039 9.27558 15.4356 8.59973 17.1369 8.59973V8.59973Z" stroke="#2F84E5" stroke-width="1.50937" stroke-linecap="round" stroke-linejoin="round"/>
<path d="M6.44526 9.66882H2.1687V22.4985H6.44526V9.66882Z" stroke="#2F84E5" stroke-width="1.50937" stroke-linecap="round" stroke-linejoin="round"/>
<path d="M4.30698 6.46143C5.48792 6.46143 6.44526 5.50409 6.44526 4.32315C6.44526 3.14222 5.48792 2.18488 4.30698 2.18488C3.12604 2.18488 2.1687 3.14222 2.1687 4.32315C2.1687 5.50409 3.12604 6.46143 4.30698 6.46143Z" stroke="#2F84E5" stroke-width="1.50937" stroke-linecap="round" stroke-linejoin="round"/>
</svg>
