<svg width="26" height="26" viewBox="0 0 26 26" fill="none" xmlns="http://www.w3.org/2000/svg">
<path fill-rule="evenodd" clip-rule="evenodd" d="M12.6957 0.71637C16.0295 0.71637 19.2268 2.04073 21.5842 4.39811C23.9416 6.75549 25.2659 9.95278 25.2659 13.2866C25.2659 16.6205 23.9416 19.8177 21.5842 22.1751C19.2268 24.5325 16.0295 25.8569 12.6957 25.8569C9.36184 25.8569 6.16455 24.5325 3.80717 22.1751C1.44979 19.8177 0.125427 16.6205 0.125427 13.2866C0.125427 9.95278 1.44979 6.75549 3.80717 4.39811C6.16455 2.04073 9.36184 0.71637 12.6957 0.71637ZM22.1601 8.45191C20.9198 6.04037 18.8092 4.19043 16.256 3.27683C17.1146 4.9013 17.7354 6.64179 18.0989 8.45191H22.1601ZM23.2856 14.2439C23.3166 13.9257 23.3321 13.6063 23.332 13.2866C23.3301 12.3052 23.1915 11.3289 22.9201 10.3858H18.391C18.4529 11.0259 18.4973 11.6699 18.4973 12.3197C18.4933 13.619 18.3599 14.9146 18.0989 16.1874H22.9201C23.1038 15.5512 23.2257 14.9014 23.2876 14.2439H23.2856ZM16.4493 14.2439L16.4609 14.1453C16.5269 13.5389 16.5611 12.9296 16.5634 12.3197C16.5505 11.6728 16.5014 11.0272 16.4165 10.3858H8.97488C8.88925 11.0271 8.84018 11.6728 8.82791 12.3197C8.83263 13.6217 8.98378 14.9192 9.2785 16.1874H16.1129C16.2618 15.5454 16.3739 14.8975 16.4493 14.2439ZM16.078 8.45191C15.6224 6.40654 14.8001 4.46059 13.651 2.70827C13.3339 2.6812 13.0167 2.65025 12.6957 2.65025C12.4942 2.65124 12.2929 2.66092 12.0923 2.67926L11.7403 2.70827L11.7287 2.72761C10.5857 4.4748 9.7674 6.414 9.31331 8.45191H16.078ZM7.2924 8.45191C7.66335 6.64304 8.2925 4.89692 9.16054 3.26716C6.59617 4.17764 4.47563 6.0319 3.23125 8.45191H7.2924ZM2.47123 10.3858C2.20028 11.329 2.06165 12.3053 2.05931 13.2866C2.06165 14.268 2.20028 15.2442 2.47123 16.1874H7.2924C7.03022 14.9148 6.89675 13.619 6.89402 12.3197C6.89402 11.6699 6.9385 11.0259 7.00039 10.3858H2.47123ZM7.79715 18.1213H3.23318C3.96421 19.5493 5.00795 20.7939 6.28666 21.7626C7.56538 22.7312 9.04614 23.399 10.6187 23.7161C9.38097 22.0165 8.42801 20.1269 7.79715 18.1213ZM12.6957 23.2345C13.9323 21.7051 14.8989 19.9759 15.554 18.1213H9.83739C10.4925 19.9759 11.4591 21.7051 12.6957 23.2345ZM17.5942 18.1213C16.9633 20.1269 16.0104 22.0165 14.7727 23.7161C16.3451 23.3987 17.8258 22.7309 19.1044 21.7622C20.3831 20.7936 21.4269 19.5491 22.1582 18.1213H17.5942Z" fill="#2F84E5"/>
</svg>
