<svg width="399" height="399" viewBox="0 0 399 399" fill="none" xmlns="http://www.w3.org/2000/svg">
<g clip-path="url(#clip0)">
<circle cx="197.949" cy="213.462" r="143.963" stroke="#2F84E5" stroke-width="7.44635"/>
<path d="M198.947 114.798L216.786 213.109H181.108L198.947 114.798Z" fill="#A01313"/>
<path d="M197.448 311.291L180.827 212.766L216.502 213.208L197.448 311.291Z" fill="#031932"/>
<g filter="url(#filter0_d)">
<rect x="261" y="266.354" width="125.893" height="55.8634" rx="27.7073" fill="#031932"/>
<path d="M285.611 292.912L284.547 302.354H281.842L283.97 286.063L290.332 296.591L296.716 286.063L298.844 302.354H296.139L295.075 292.912L290.332 300.914L285.611 292.912ZM311.939 302.354L310.166 298.365H304.447L302.674 302.354H299.726L307.306 285.974L314.887 302.354H311.939ZM307.306 291.227L305.201 296.148H309.412L307.306 291.227ZM323.667 286.838H326.66L321.406 295.816V302.354H318.724V295.838L313.471 286.838H316.463L320.054 293.488L323.667 286.838ZM326.806 298.165V296.015H331.35V298.165H326.806ZM333.098 290.474V287.991L339.283 286.595V302.354H336.689V289.476L333.098 290.474ZM344.661 297.345C345.164 298.246 345.733 298.971 346.368 299.517C347.018 300.064 347.779 300.337 348.651 300.337C349.375 300.337 349.952 300.153 350.38 299.783C350.824 299.399 351.045 298.897 351.045 298.276C351.045 297.7 350.905 297.242 350.624 296.902C350.343 296.547 349.952 296.251 349.449 296.015C348.962 295.764 348.393 295.52 347.742 295.284C347.358 295.151 346.93 294.973 346.457 294.752C345.984 294.53 345.533 294.249 345.105 293.909C344.676 293.555 344.322 293.119 344.041 292.602C343.76 292.084 343.62 291.464 343.62 290.74C343.62 289.912 343.834 289.188 344.262 288.567C344.691 287.932 345.267 287.444 345.991 287.104C346.73 286.75 347.565 286.572 348.496 286.572C349.412 286.572 350.21 286.735 350.89 287.06C351.57 287.385 352.139 287.799 352.597 288.301C353.07 288.804 353.439 289.328 353.705 289.875L351.577 291.072C351.252 290.511 350.846 290.008 350.358 289.565C349.87 289.121 349.235 288.9 348.452 288.9C347.728 288.9 347.196 289.07 346.856 289.41C346.516 289.75 346.346 290.134 346.346 290.562C346.346 291.168 346.619 291.685 347.166 292.114C347.713 292.542 348.614 292.971 349.87 293.399C350.491 293.606 351.104 293.902 351.71 294.286C352.316 294.67 352.818 295.173 353.217 295.793C353.616 296.399 353.816 297.153 353.816 298.054C353.816 299.015 353.565 299.842 353.062 300.537C352.575 301.231 351.939 301.763 351.156 302.133C350.373 302.502 349.538 302.687 348.651 302.687C347.75 302.687 346.908 302.51 346.124 302.155C345.356 301.786 344.676 301.305 344.085 300.714C343.509 300.108 343.051 299.443 342.711 298.719L344.661 297.345ZM354.905 289.254V286.838H365.722V289.254H361.621V302.354H358.983V289.254H354.905Z" fill="white"/>
</g>
<g filter="url(#filter1_d)">
<rect x="135.967" y="38" width="125.893" height="55.8634" rx="27.7073" fill="#031932"/>
<path d="M160.578 64.5573L159.514 74H156.81L158.938 57.7081L165.299 68.2369L171.683 57.7081L173.811 74H171.107L170.043 64.5573L165.299 72.5592L160.578 64.5573ZM186.906 74L185.133 70.0101H179.414L177.641 74H174.693L182.274 57.6194L189.854 74H186.906ZM182.274 62.8727L180.168 67.7936H184.379L182.274 62.8727ZM198.635 58.4839H201.627L196.374 67.4611V74H193.692V67.4832L188.438 58.4839H191.431L195.022 65.1337L198.635 58.4839ZM201.774 69.8107V67.6606H206.318V69.8107H201.774ZM208.066 62.1191V59.6365L214.25 58.2401V74H211.657V61.1216L208.066 62.1191ZM219.629 68.9905C220.131 69.8919 220.7 70.616 221.335 71.1628C221.986 71.7095 222.747 71.9829 223.619 71.9829C224.343 71.9829 224.919 71.7982 225.348 71.4288C225.791 71.0446 226.012 70.5421 226.012 69.9215C226.012 69.3452 225.872 68.8871 225.591 68.5472C225.311 68.1925 224.919 67.897 224.417 67.6606C223.929 67.4093 223.36 67.1655 222.71 66.9291C222.326 66.7961 221.897 66.6188 221.424 66.3971C220.951 66.1754 220.501 65.8947 220.072 65.5548C219.643 65.2002 219.289 64.7642 219.008 64.247C218.727 63.7298 218.587 63.1092 218.587 62.3851C218.587 61.5576 218.801 60.8335 219.23 60.2128C219.658 59.5774 220.235 59.0898 220.959 58.7499C221.698 58.3952 222.532 58.2179 223.463 58.2179C224.38 58.2179 225.178 58.3805 225.857 58.7056C226.537 59.0307 227.106 59.4444 227.564 59.9468C228.037 60.4493 228.406 60.9739 228.672 61.5206L226.544 62.7176C226.219 62.156 225.813 61.6536 225.325 61.2103C224.838 60.767 224.202 60.5453 223.419 60.5453C222.695 60.5453 222.163 60.7153 221.823 61.0551C221.483 61.395 221.313 61.7792 221.313 62.2078C221.313 62.8136 221.587 63.3308 222.133 63.7594C222.68 64.1879 223.582 64.6164 224.838 65.045C225.458 65.2519 226.072 65.5474 226.677 65.9316C227.283 66.3158 227.786 66.8183 228.185 67.4389C228.584 68.0448 228.783 68.7984 228.783 69.6998C228.783 70.6603 228.532 71.4879 228.03 72.1824C227.542 72.8769 226.907 73.4089 226.123 73.7783C225.34 74.1478 224.505 74.3325 223.619 74.3325C222.717 74.3325 221.875 74.1552 221.092 73.8005C220.323 73.4311 219.643 72.9508 219.052 72.3597C218.476 71.7539 218.018 71.0889 217.678 70.3648L219.629 68.9905ZM229.872 60.9V58.4839H240.689V60.9H236.588V74H233.951V60.9H229.872Z" fill="white"/>
</g>
<g filter="url(#filter2_d)">
<path d="M224.082 35.2296C222.901 34.049 221.017 34.0112 219.815 35.1203L215.084 30.3896C216.377 28.408 217.131 26.0426 217.131 23.5001C217.131 20.9576 216.377 18.5923 215.084 16.6107L219.788 11.9068C220.99 13.0164 222.874 12.9801 224.055 11.798C225.268 10.589 225.28 8.63524 224.084 7.4389C223.363 6.71826 222.368 6.4402 221.425 6.59631C221.599 5.63966 221.322 4.62256 220.588 3.88878C219.393 2.69296 217.442 2.70505 216.23 3.91769C215.05 5.09931 215.012 6.98318 216.121 8.18477L211.39 12.916C209.341 11.5778 206.947 10.8666 204.5 10.8697C202.054 10.8667 199.659 11.5779 197.611 12.916L192.907 8.21158C194.016 7.00998 193.979 5.12664 192.798 3.9445C191.587 2.73344 189.635 2.72082 188.439 3.91611C187.718 4.63728 187.44 5.63283 187.596 6.57529C186.639 6.40183 185.622 6.67884 184.888 7.41157C183.692 8.60738 183.706 10.558 184.917 11.7696C186.099 12.9523 187.983 12.9885 189.186 11.8794L193.916 16.6101C192.623 18.5918 191.869 20.9571 191.869 23.4996C191.869 26.0421 192.623 28.4074 193.916 30.3891L189.212 35.0935C188.01 33.9844 186.127 34.0212 184.945 35.2018C183.734 36.4133 183.722 38.365 184.916 39.5608C185.638 40.282 186.633 40.5601 187.576 40.4039C187.402 41.3606 187.679 42.3782 188.412 43.112C189.608 44.3078 191.558 44.2936 192.77 43.0831C193.952 41.901 193.989 40.0166 192.88 38.8144L197.466 34.2278V37.3532C199.449 38.9806 201.935 39.8685 204.5 39.8652C207.066 39.8686 209.552 38.9806 211.535 37.3532V34.2278L216.094 38.7871C214.985 39.9892 215.02 41.8731 216.203 43.0547C217.412 44.2668 219.366 44.2789 220.562 43.0831C221.282 42.3625 221.56 41.3669 221.404 40.4244C222.361 40.5984 223.378 40.3214 224.112 39.5882C225.307 38.3924 225.295 36.4423 224.082 35.2296ZM201.054 28.2245C200.414 28.2245 199.8 27.9701 199.347 27.5172C198.894 27.0643 198.639 26.45 198.639 25.8095C198.639 25.169 198.894 24.5547 199.347 24.1018C199.8 23.6489 200.414 23.3945 201.054 23.3945C202.387 23.3945 203.467 24.4778 203.467 25.8108C203.467 27.1438 202.386 28.2245 201.054 28.2245ZM207.946 28.2597C207.306 28.2597 206.692 28.0054 206.239 27.5528C205.786 27.1001 205.532 26.4862 205.532 25.846C205.532 25.2059 205.786 24.5919 206.239 24.1393C206.692 23.6866 207.306 23.4323 207.946 23.4323C208.267 23.4256 208.586 23.4831 208.885 23.6014C209.184 23.7197 209.456 23.8964 209.685 24.1212C209.915 24.346 210.097 24.6143 210.222 24.9105C210.346 25.2067 210.41 25.5247 210.41 25.846C210.41 26.1673 210.346 26.4854 210.222 26.7815C210.097 27.0777 209.915 27.3461 209.685 27.5709C209.456 27.7957 209.184 27.9724 208.885 28.0907C208.586 28.209 208.267 28.2664 207.946 28.2597Z" fill="#CFE4FC"/>
</g>
<g filter="url(#filter3_d)">
<rect y="257.667" width="125.893" height="55.8634" rx="27.7073" fill="#031932"/>
<path d="M24.6105 284.224L23.5465 293.667H20.8423L22.9702 277.375L29.3318 287.904L35.7156 277.375L37.8435 293.667H35.1393L34.0753 284.224L29.3318 292.226L24.6105 284.224ZM50.939 293.667L49.1658 289.677H43.447L41.6737 293.667H38.7257L46.3064 277.287L53.8871 293.667H50.939ZM46.3064 282.54L44.2006 287.461H48.4121L46.3064 282.54ZM62.6674 278.151H65.6598L60.4065 287.128V293.667H57.7244V287.15L52.4711 278.151H55.4635L59.0543 284.801L62.6674 278.151ZM65.8063 289.478V287.328H70.3503V289.478H65.8063ZM72.0984 281.786V279.304L78.2827 277.907V293.667H75.6893V280.789L72.0984 281.786ZM83.6614 288.658C84.1638 289.559 84.7328 290.283 85.3682 290.83C86.0184 291.377 86.7794 291.65 87.6513 291.65C88.3753 291.65 88.9517 291.465 89.3802 291.096C89.8235 290.712 90.0452 290.209 90.0452 289.589C90.0452 289.012 89.9048 288.554 89.624 288.214C89.3433 287.86 88.9517 287.564 88.4492 287.328C87.9616 287.076 87.3927 286.833 86.7425 286.596C86.3582 286.463 85.9297 286.286 85.4568 286.064C84.984 285.843 84.5333 285.562 84.1047 285.222C83.6762 284.867 83.3215 284.431 83.0408 283.914C82.76 283.397 82.6196 282.776 82.6196 282.052C82.6196 281.225 82.8339 280.501 83.2624 279.88C83.691 279.245 84.2673 278.757 84.9914 278.417C85.7302 278.062 86.5651 277.885 87.4961 277.885C88.4123 277.885 89.2103 278.048 89.89 278.373C90.5698 278.698 91.1387 279.112 91.5968 279.614C92.0697 280.116 92.4391 280.641 92.7051 281.188L90.5772 282.385C90.2521 281.823 89.8457 281.321 89.358 280.877C88.8704 280.434 88.235 280.212 87.4518 280.212C86.7277 280.212 86.1957 280.382 85.8558 280.722C85.5159 281.062 85.346 281.446 85.346 281.875C85.346 282.481 85.6194 282.998 86.1661 283.426C86.7129 283.855 87.6143 284.284 88.8704 284.712C89.491 284.919 90.1043 285.215 90.7101 285.599C91.316 285.983 91.8184 286.485 92.2174 287.106C92.6164 287.712 92.8159 288.466 92.8159 289.367C92.8159 290.327 92.5647 291.155 92.0623 291.85C91.5746 292.544 90.9392 293.076 90.156 293.445C89.3728 293.815 88.5379 294 87.6513 294C86.7498 294 85.9075 293.822 85.1243 293.468C84.3559 293.098 83.6762 292.618 83.0851 292.027C82.5088 291.421 82.0507 290.756 81.7108 290.032L83.6614 288.658ZM93.9048 280.567V278.151H104.722V280.567H100.621V293.667H97.9833V280.567H93.9048Z" fill="white"/>
</g>
<g filter="url(#filter4_d)">
<path d="M80.0822 255.23C78.9006 254.049 77.0168 254.011 75.8152 255.12L71.0845 250.39C72.377 248.408 73.1313 246.043 73.1313 243.5C73.1313 240.958 72.377 238.592 71.0845 236.611L75.7884 231.907C76.9905 233.016 78.8738 232.98 80.0554 231.798C81.2675 230.589 81.2796 228.635 80.0838 227.439C79.3632 226.718 78.3682 226.44 77.4252 226.596C77.5986 225.64 77.3222 224.623 76.5884 223.889C75.3931 222.693 73.4425 222.705 72.2304 223.918C71.0498 225.099 71.0119 226.983 72.121 228.185L67.3898 232.916C65.3415 231.578 62.9471 230.867 60.5004 230.87C58.0537 230.867 55.6593 231.578 53.6109 232.916L48.9065 228.212C50.0156 227.01 49.9788 225.127 48.7982 223.944C47.5866 222.733 45.635 222.721 44.4392 223.916C43.718 224.637 43.4399 225.633 43.596 226.575C42.6394 226.402 41.6218 226.679 40.888 227.412C39.6922 228.607 39.7064 230.558 40.9169 231.77C42.0991 232.952 43.9834 232.989 45.1856 231.879L49.9162 236.61C48.6232 238.592 47.8694 240.957 47.8694 243.5C47.8694 246.042 48.6232 248.407 49.9162 250.389L45.2118 255.093C44.0102 253.984 42.1269 254.021 40.9448 255.202C39.7337 256.413 39.7216 258.365 40.9164 259.561C41.6375 260.282 42.6331 260.56 43.5756 260.404C43.4021 261.361 43.6791 262.378 44.4118 263.112C45.6076 264.308 47.5583 264.294 48.7698 263.083C49.952 261.901 49.9888 260.017 48.8797 258.814L53.4664 254.228V257.353C55.4489 258.981 57.9354 259.869 60.5004 259.865C63.0655 259.869 65.5521 258.981 67.5349 257.353V254.228L72.0942 258.787C70.9846 259.989 71.0204 261.873 72.2025 263.055C73.412 264.267 75.3658 264.279 76.5616 263.083C77.2822 262.362 77.5603 261.367 77.4042 260.424C78.3608 260.598 79.3779 260.321 80.1117 259.588C81.307 258.392 81.2949 256.442 80.0822 255.23ZM57.0543 248.225C56.4138 248.225 55.7996 247.97 55.3466 247.517C54.8937 247.064 54.6393 246.45 54.6393 245.809C54.6393 245.169 54.8937 244.555 55.3466 244.102C55.7996 243.649 56.4138 243.394 57.0543 243.394C58.3868 243.394 59.4675 244.478 59.4675 245.811C59.4675 247.144 58.3863 248.225 57.0543 248.225ZM63.9459 248.26C63.3057 248.26 62.6918 248.005 62.2391 247.553C61.7865 247.1 61.5322 246.486 61.5322 245.846C61.5322 245.206 61.7865 244.592 62.2391 244.139C62.6918 243.687 63.3057 243.432 63.9459 243.432C64.2671 243.426 64.5864 243.483 64.8851 243.601C65.1838 243.72 65.4559 243.896 65.6855 244.121C65.915 244.346 66.0974 244.614 66.2219 244.911C66.3464 245.207 66.4105 245.525 66.4105 245.846C66.4105 246.167 66.3464 246.485 66.2219 246.782C66.0974 247.078 65.915 247.346 65.6855 247.571C65.4559 247.796 65.1838 247.972 64.8851 248.091C64.5864 248.209 64.2671 248.266 63.9459 248.26Z" fill="#CFE4FC"/>
</g>
<g filter="url(#filter5_d)">
<path d="M348.558 261.23C347.377 260.049 345.493 260.011 344.291 261.12L339.56 256.39C340.853 254.408 341.607 252.043 341.607 249.5C341.607 246.958 340.853 244.592 339.56 242.611L344.264 237.907C345.466 239.016 347.35 238.98 348.531 237.798C349.743 236.589 349.756 234.635 348.56 233.439C347.839 232.718 346.844 232.44 345.901 232.596C346.075 231.64 345.798 230.623 345.064 229.889C343.869 228.693 341.918 228.705 340.706 229.918C339.526 231.099 339.488 232.983 340.597 234.185L335.866 238.916C333.817 237.578 331.423 236.867 328.976 236.87C326.53 236.867 324.135 237.578 322.087 238.916L317.382 234.212C318.492 233.01 318.455 231.127 317.274 229.944C316.063 228.733 314.111 228.721 312.915 229.916C312.194 230.637 311.916 231.633 312.072 232.575C311.115 232.402 310.098 232.679 309.364 233.412C308.168 234.607 308.182 236.558 309.393 237.77C310.575 238.952 312.459 238.989 313.661 237.879L318.392 242.61C317.099 244.592 316.345 246.957 316.345 249.5C316.345 252.042 317.099 254.407 318.392 256.389L313.688 261.093C312.486 259.984 310.603 260.021 309.421 261.202C308.21 262.413 308.198 264.365 309.392 265.561C310.113 266.282 311.109 266.56 312.051 266.404C311.878 267.361 312.155 268.378 312.888 269.112C314.084 270.308 316.034 270.294 317.246 269.083C318.428 267.901 318.465 266.017 317.356 264.814L321.942 260.228V263.353C323.925 264.981 326.411 265.869 328.976 265.865C331.541 265.869 334.028 264.981 336.011 263.353V260.228L340.57 264.787C339.461 265.989 339.496 267.873 340.678 269.055C341.888 270.267 343.842 270.279 345.037 269.083C345.758 268.362 346.036 267.367 345.88 266.424C346.837 266.598 347.854 266.321 348.588 265.588C349.783 264.392 349.771 262.442 348.558 261.23ZM325.53 254.225C324.89 254.225 324.275 253.97 323.823 253.517C323.37 253.064 323.115 252.45 323.115 251.809C323.115 251.169 323.37 250.555 323.823 250.102C324.275 249.649 324.89 249.394 325.53 249.394C326.863 249.394 327.943 250.478 327.943 251.811C327.943 253.144 326.862 254.225 325.53 254.225ZM332.422 254.26C331.782 254.26 331.168 254.005 330.715 253.553C330.262 253.1 330.008 252.486 330.008 251.846C330.008 251.206 330.262 250.592 330.715 250.139C331.168 249.687 331.782 249.432 332.422 249.432C332.743 249.426 333.062 249.483 333.361 249.601C333.66 249.72 333.932 249.896 334.161 250.121C334.391 250.346 334.573 250.614 334.698 250.911C334.822 251.207 334.886 251.525 334.886 251.846C334.886 252.167 334.822 252.485 334.698 252.782C334.573 253.078 334.391 253.346 334.161 253.571C333.932 253.796 333.66 253.972 333.361 254.091C333.062 254.209 332.743 254.266 332.422 254.26Z" fill="#CFE4FC"/>
</g>
</g>
<defs>
<filter id="filter0_d" x="258.518" y="266.354" width="130.857" height="60.8277" filterUnits="userSpaceOnUse" color-interpolation-filters="sRGB">
<feFlood flood-opacity="0" result="BackgroundImageFix"/>
<feColorMatrix in="SourceAlpha" type="matrix" values="0 0 0 0 0 0 0 0 0 0 0 0 0 0 0 0 0 0 127 0"/>
<feOffset dy="2.48212"/>
<feGaussianBlur stdDeviation="1.24106"/>
<feColorMatrix type="matrix" values="0 0 0 0 0 0 0 0 0 0 0 0 0 0 0 0 0 0 0.25 0"/>
<feBlend mode="normal" in2="BackgroundImageFix" result="effect1_dropShadow"/>
<feBlend mode="normal" in="SourceGraphic" in2="effect1_dropShadow" result="shape"/>
</filter>
<filter id="filter1_d" x="133.485" y="38" width="130.857" height="60.8277" filterUnits="userSpaceOnUse" color-interpolation-filters="sRGB">
<feFlood flood-opacity="0" result="BackgroundImageFix"/>
<feColorMatrix in="SourceAlpha" type="matrix" values="0 0 0 0 0 0 0 0 0 0 0 0 0 0 0 0 0 0 127 0"/>
<feOffset dy="2.48212"/>
<feGaussianBlur stdDeviation="1.24106"/>
<feColorMatrix type="matrix" values="0 0 0 0 0 0 0 0 0 0 0 0 0 0 0 0 0 0 0.25 0"/>
<feBlend mode="normal" in2="BackgroundImageFix" result="effect1_dropShadow"/>
<feBlend mode="normal" in="SourceGraphic" in2="effect1_dropShadow" result="shape"/>
</filter>
<filter id="filter2_d" x="180" y="3" width="49" height="49" filterUnits="userSpaceOnUse" color-interpolation-filters="sRGB">
<feFlood flood-opacity="0" result="BackgroundImageFix"/>
<feColorMatrix in="SourceAlpha" type="matrix" values="0 0 0 0 0 0 0 0 0 0 0 0 0 0 0 0 0 0 127 0"/>
<feOffset dy="4"/>
<feGaussianBlur stdDeviation="2"/>
<feColorMatrix type="matrix" values="0 0 0 0 0 0 0 0 0 0 0 0 0 0 0 0 0 0 0.25 0"/>
<feBlend mode="normal" in2="BackgroundImageFix" result="effect1_dropShadow"/>
<feBlend mode="normal" in="SourceGraphic" in2="effect1_dropShadow" result="shape"/>
</filter>
<filter id="filter3_d" x="-2.48212" y="257.667" width="130.857" height="60.8277" filterUnits="userSpaceOnUse" color-interpolation-filters="sRGB">
<feFlood flood-opacity="0" result="BackgroundImageFix"/>
<feColorMatrix in="SourceAlpha" type="matrix" values="0 0 0 0 0 0 0 0 0 0 0 0 0 0 0 0 0 0 127 0"/>
<feOffset dy="2.48212"/>
<feGaussianBlur stdDeviation="1.24106"/>
<feColorMatrix type="matrix" values="0 0 0 0 0 0 0 0 0 0 0 0 0 0 0 0 0 0 0.25 0"/>
<feBlend mode="normal" in2="BackgroundImageFix" result="effect1_dropShadow"/>
<feBlend mode="normal" in="SourceGraphic" in2="effect1_dropShadow" result="shape"/>
</filter>
<filter id="filter4_d" x="36" y="223" width="49" height="49" filterUnits="userSpaceOnUse" color-interpolation-filters="sRGB">
<feFlood flood-opacity="0" result="BackgroundImageFix"/>
<feColorMatrix in="SourceAlpha" type="matrix" values="0 0 0 0 0 0 0 0 0 0 0 0 0 0 0 0 0 0 127 0"/>
<feOffset dy="4"/>
<feGaussianBlur stdDeviation="2"/>
<feColorMatrix type="matrix" values="0 0 0 0 0 0 0 0 0 0 0 0 0 0 0 0 0 0 0.25 0"/>
<feBlend mode="normal" in2="BackgroundImageFix" result="effect1_dropShadow"/>
<feBlend mode="normal" in="SourceGraphic" in2="effect1_dropShadow" result="shape"/>
</filter>
<filter id="filter5_d" x="304.476" y="229" width="49" height="49" filterUnits="userSpaceOnUse" color-interpolation-filters="sRGB">
<feFlood flood-opacity="0" result="BackgroundImageFix"/>
<feColorMatrix in="SourceAlpha" type="matrix" values="0 0 0 0 0 0 0 0 0 0 0 0 0 0 0 0 0 0 127 0"/>
<feOffset dy="4"/>
<feGaussianBlur stdDeviation="2"/>
<feColorMatrix type="matrix" values="0 0 0 0 0 0 0 0 0 0 0 0 0 0 0 0 0 0 0.25 0"/>
<feBlend mode="normal" in2="BackgroundImageFix" result="effect1_dropShadow"/>
<feBlend mode="normal" in="SourceGraphic" in2="effect1_dropShadow" result="shape"/>
</filter>
<clipPath id="clip0">
<rect width="399" height="399" fill="white"/>
</clipPath>
</defs>
</svg>
