<svg width="24" height="26" viewBox="0 0 24 26" fill="none" xmlns="http://www.w3.org/2000/svg">
<path d="M16.8124 24.5047V20.2455C16.8537 19.7207 16.7828 19.1931 16.6044 18.6978C16.426 18.2025 16.1443 17.7509 15.7779 17.373C19.2337 16.9877 22.8656 15.6781 22.8656 9.66886C22.8654 8.13225 22.2743 6.65458 21.2148 5.54167C21.7165 4.19731 21.681 2.71135 21.1157 1.39246C21.1157 1.39246 19.817 1.00726 16.8124 3.02133C14.2899 2.33767 11.6309 2.33767 9.10833 3.02133C6.10373 1.00726 4.80504 1.39246 4.80504 1.39246C4.23976 2.71135 4.20428 4.19731 4.70599 5.54167C3.63856 6.66283 3.04688 8.15387 3.05511 9.70188C3.05511 15.667 6.68704 16.9767 10.1429 17.406C9.78078 17.7801 9.50153 18.2264 9.32328 18.7156C9.14504 19.2048 9.0718 19.7261 9.10833 20.2455V24.5047M9.10833 21.203C3.6054 22.8539 3.6054 18.4515 1.40424 17.9012L9.10833 21.203Z" stroke="#2F84E5" stroke-width="1.50937" stroke-linecap="round" stroke-linejoin="round"/>
</svg>
